<?xml version="1.0" standalone="no"?>
<!DOCTYPE svg PUBLIC "-//W3C//DTD SVG 20010904//EN"
 "http://www.w3.org/TR/2001/REC-SVG-20010904/DTD/svg10.dtd">
<svg version="1.0" xmlns="http://www.w3.org/2000/svg"
 width="612.000000pt" height="612.000000pt" viewBox="0 0 612.000000 612.000000"
 preserveAspectRatio="xMidYMid meet">
<metadata>
Created by potrace 1.14, written by Peter Selinger 2001-2017
</metadata>
<g transform="translate(0.000000,612.000000) scale(0.100000,-0.100000)"
fill="#000000" stroke="none">
<path d="M2740 5685 c-601 -78 -1134 -339 -1554 -761 -302 -303 -531 -686
-659 -1104 -30 -96 -68 -271 -88 -405 -19 -122 -19 -587 0 -710 74 -494 249
-903 553 -1292 166 -212 440 -456 678 -604 107 -66 354 -186 481 -233 190 -70
430 -125 647 -147 145 -15 522 -6 657 15 384 60 739 198 1060 411 590 390 983
968 1134 1668 63 289 69 700 15 997 -44 244 -113 455 -225 688 -81 170 -117
232 -217 372 -108 151 -175 231 -293 349 -401 401 -899 653 -1475 747 -137 22
-571 28 -714 9z m690 -50 c562 -85 1066 -340 1466 -739 413 -414 662 -917 746
-1511 20 -138 17 -543 -5 -685 -32 -208 -84 -405 -154 -584 -38 -98 -143 -314
-174 -357 -10 -15 -19 -30 -19 -34 0 -8 -107 -166 -163 -242 -22 -29 -44 -50
-50 -46 -6 3 -7 1 -3 -5 4 -6 -27 -49 -72 -99 -314 -350 -708 -607 -1149 -748
l-103 -33 0 118 c0 208 20 469 52 685 43 289 45 479 5 640 -99 395 -108 449
-114 650 -3 111 -1 232 6 291 13 123 51 308 61 297 16 -17 51 -235 80 -488 27
-239 44 -342 81 -488 74 -299 90 -422 64 -502 -11 -33 -20 -122 -27 -267 -10
-198 -10 -219 6 -242 9 -14 26 -26 37 -26 18 0 21 -5 17 -39 -2 -22 -1 -38 3
-35 3 2 14 -5 24 -16 10 -11 31 -20 47 -20 21 0 28 -5 28 -19 0 -25 36 -51 71
-51 34 0 69 41 69 81 0 24 4 29 25 29 14 0 34 9 45 20 18 18 20 34 21 163 0
123 2 137 12 108 13 -38 47 -67 90 -77 25 -6 27 -4 27 26 0 52 -39 230 -60
269 -10 20 -39 56 -65 81 -84 81 -80 54 -80 505 l0 400 -28 125 c-20 86 -33
184 -42 315 -9 132 -21 223 -39 297 -30 124 -31 143 -11 218 18 65 19 178 4
252 -17 83 -65 163 -137 228 -73 68 -75 68 -378 199 -252 109 -290 135 -340
236 -40 82 -32 131 44 291 34 71 66 152 72 179 22 99 -15 210 -98 291 -85 83
-194 124 -334 124 -248 0 -388 -103 -443 -325 -19 -76 -46 -134 -100 -209 -19
-26 -35 -58 -35 -70 0 -28 27 -66 46 -66 8 0 14 -6 13 -12 -3 -17 10 -68 22
-91 5 -9 6 -34 3 -56 -8 -48 15 -95 56 -116 38 -19 64 -19 123 2 47 17 49 17
63 -2 33 -45 28 -50 -153 -129 -46 -20 -118 -51 -160 -70 -43 -19 -107 -46
-143 -62 -177 -76 -288 -195 -319 -342 -16 -74 -14 -179 5 -259 17 -73 15
-103 -16 -228 -12 -48 -26 -161 -35 -280 -8 -113 -23 -235 -34 -280 -38 -157
-44 -261 -38 -607 8 -391 12 -369 -89 -471 -35 -35 -56 -68 -67 -102 -23 -69
-47 -189 -47 -232 0 -33 1 -35 28 -29 42 10 76 39 89 77 10 29 12 15 12 -108
1 -129 3 -145 21 -163 11 -11 31 -20 45 -20 20 0 25 -5 25 -26 0 -28 16 -65
34 -76 36 -24 106 5 106 44 0 13 8 18 28 18 40 1 63 23 69 69 4 31 10 41 24
41 10 0 26 12 35 26 16 23 16 44 6 242 -7 144 -16 234 -27 267 -26 79 -8 215
64 502 37 144 54 249 81 493 24 207 67 471 79 483 8 8 42 -142 61 -270 5 -39
10 -150 10 -246 0 -195 -16 -311 -75 -552 -18 -77 -41 -171 -50 -210 -35 -152
-31 -298 20 -650 27 -184 45 -439 45 -632 l0 -122 -52 16 c-183 53 -454 176
-623 281 -362 225 -684 560 -894 926 -261 457 -377 988 -331 1516 79 890 628
1697 1425 2093 287 143 599 234 915 267 125 13 496 4 620 -15z m-339 -285
c118 -22 221 -98 267 -198 20 -45 23 -65 20 -125 -3 -64 -10 -85 -66 -197 -78
-156 -91 -216 -63 -294 25 -72 74 -139 132 -182 26 -19 50 -34 53 -34 21 0
460 -198 504 -227 71 -48 139 -129 163 -198 29 -82 35 -196 15 -271 -22 -85
-20 -142 9 -259 18 -71 28 -149 36 -269 7 -121 18 -211 42 -320 l32 -151 0
-400 0 -400 24 -42 c13 -23 42 -56 63 -73 50 -41 71 -85 96 -198 18 -85 19
-92 3 -78 -9 8 -22 42 -29 76 -9 43 -19 63 -34 71 -41 22 -48 -7 -48 -197 0
-142 -3 -174 -15 -184 -26 -22 -34 0 -37 105 -3 92 -5 100 -23 100 -19 0 -20
-8 -23 -158 -2 -130 -5 -159 -18 -164 -8 -3 -18 -2 -22 2 -4 3 -9 77 -12 163
-4 139 -7 157 -22 160 -16 3 -18 -8 -18 -121 0 -107 -2 -126 -17 -131 -9 -4
-21 -2 -26 3 -5 5 -11 69 -14 142 -2 74 -6 135 -8 137 -2 3 -11 2 -20 -1 -12
-5 -15 -23 -15 -86 0 -80 -13 -115 -23 -63 -10 46 13 383 30 449 26 102 8 250
-67 540 -33 130 -49 229 -80 498 -27 227 -65 453 -84 499 -16 38 -44 48 -65
23 -14 -18 -48 -162 -65 -283 -23 -154 -28 -319 -16 -455 14 -157 30 -237 132
-649 22 -91 14 -296 -21 -535 -35 -242 -51 -445 -51 -666 0 -113 -3 -159 -12
-167 -24 -18 -384 -80 -410 -69 -10 3 -18 27 -22 69 -15 129 -77 476 -100 558
-14 47 -36 114 -51 148 -15 35 -32 90 -38 123 -10 55 -27 81 -27 42 0 -33 -33
-149 -55 -193 -40 -80 -112 -428 -141 -678 -3 -34 -11 -65 -16 -68 -21 -13
-389 47 -415 68 -10 8 -13 53 -13 162 0 200 -16 443 -40 591 -20 132 -36 264
-46 395 -7 98 8 197 61 415 79 320 101 495 90 695 -12 208 -58 466 -90 499
-24 25 -53 4 -69 -53 -21 -73 -51 -263 -81 -516 -29 -242 -41 -317 -84 -487
-70 -277 -83 -401 -57 -510 14 -57 38 -384 31 -433 -2 -14 -4 -29 -4 -35 -1
-5 -5 -5 -11 1 -5 5 -10 45 -12 89 -3 67 -6 80 -20 83 -16 3 -18 -8 -18 -125
0 -136 -10 -173 -43 -160 -14 5 -17 27 -19 129 -3 108 -5 123 -20 126 -17 3
-18 -9 -18 -150 0 -156 -6 -186 -34 -175 -13 5 -16 31 -18 164 -3 150 -4 158
-23 158 -18 0 -20 -8 -23 -100 -3 -100 -12 -125 -39 -103 -10 8 -13 56 -13
188 0 142 -3 180 -14 189 -26 22 -53 -3 -66 -61 -27 -122 -53 -131 -29 -10 24
120 30 133 93 195 96 97 91 66 91 522 l0 400 33 150 c23 110 35 194 41 315 7
116 18 198 35 272 30 123 32 177 10 262 -19 72 -14 184 11 261 35 107 134 203
267 262 40 18 165 72 278 121 229 99 242 109 225 179 -7 28 -18 42 -41 53
l-31 16 41 17 c48 21 60 12 44 -31 -12 -31 -11 -35 20 -61 18 -16 38 -46 46
-67 12 -36 33 -55 78 -68 20 -6 45 -83 58 -181 5 -38 10 -174 10 -302 0 -167
4 -252 15 -303 8 -40 13 -76 9 -81 -3 -5 0 -9 5 -9 6 0 11 -7 11 -15 0 -12
-31 0 -117 45 -115 60 -120 62 -184 58 -53 -3 -75 -9 -109 -33 -93 -64 -137
-178 -126 -324 7 -86 59 -326 76 -346 6 -8 3 -30 -10 -65 -11 -29 -17 -56 -15
-61 3 -4 1 -10 -4 -13 -5 -3 -17 -49 -26 -101 -29 -159 -12 -314 49 -435 27
-55 53 -62 101 -25 50 38 56 54 36 96 l-17 35 28 -4 c39 -6 58 13 60 62 0 22
4 -13 8 -79 5 -101 11 -130 34 -180 32 -70 66 -109 118 -136 49 -25 58 -43 63
-140 3 -45 10 -88 16 -96 14 -16 61 -17 77 -1 18 18 16 190 -3 235 -19 45 -20
40 18 57 21 8 53 12 84 9 30 -3 59 0 73 7 13 7 48 15 79 17 30 2 59 7 65 10 6
4 19 8 28 8 10 1 26 9 36 18 10 9 22 17 26 17 9 0 61 54 70 72 3 7 10 20 15
28 24 40 33 100 25 171 -4 41 -8 166 -8 279 -1 114 -5 212 -11 220 -5 8 -11
23 -12 33 -2 10 -10 29 -19 42 -9 14 -13 25 -9 25 16 0 -21 32 -55 48 l-38 17
38 63 c60 99 69 191 25 258 -8 12 -11 31 -8 42 8 32 -25 89 -60 104 -48 20
-133 14 -213 -16 -39 -14 -74 -26 -76 -26 -7 0 -27 49 -40 97 -6 21 -14 173
-18 338 -7 312 -17 389 -61 493 -11 24 -19 55 -19 68 0 14 -11 46 -24 72 -39
77 -55 155 -49 232 l6 68 -51 51 c-28 28 -60 51 -71 51 -13 0 -30 15 -46 41
-56 88 -166 90 -247 6 l-40 -42 22 44 c12 25 33 82 45 127 59 216 165 296 396
303 31 0 81 -4 110 -9z m-356 -416 c9 -4 25 -24 35 -45 14 -27 30 -41 53 -48
17 -5 25 -10 17 -10 -8 -1 -25 -9 -37 -19 -19 -14 -42 -17 -148 -14 -156 4
-162 10 -79 87 51 47 64 54 101 55 23 0 49 -3 58 -6z m-242 -163 c10 -12 9
-12 -10 -3 -30 16 -32 23 -20 52 l11 25 4 -30 c2 -16 9 -36 15 -44z m402 9
c-3 -5 0 -7 8 -4 21 8 30 -38 17 -85 -5 -21 -28 -58 -51 -82 -22 -24 -37 -35
-33 -24 16 43 16 105 0 130 -19 29 -20 47 -4 63 14 14 72 16 63 2z m-305 -57
c-26 -34 -26 -77 2 -102 18 -18 20 -24 10 -46 -17 -37 -15 -72 6 -85 14 -9 12
-10 -13 -5 -42 9 -55 30 -56 94 -1 31 -2 74 -4 96 -4 63 8 83 44 77 l31 -4
-20 -25z m204 -25 c36 -52 2 -103 -90 -138 -30 -11 -56 -20 -58 -20 -2 0 -1
19 1 43 4 34 1 46 -16 61 -12 11 -21 24 -21 30 0 23 55 45 112 46 48 0 59 -4
72 -22z m146 -143 c0 -11 13 -47 28 -80 l28 -59 -30 -28 c-17 -16 -35 -28 -42
-28 -6 0 -16 18 -23 39 -6 23 -25 50 -42 64 l-30 23 21 19 c11 10 20 21 20 26
0 4 12 21 27 38 28 32 42 27 43 -14z m83 -243 c39 -98 50 -190 52 -462 2 -261
9 -328 41 -412 12 -33 12 -38 0 -38 -13 0 -35 52 -51 125 -4 17 -10 167 -14
335 -8 311 -10 323 -56 468 -13 38 12 25 28 -16z m-108 -891 c155 -80 180 -83
314 -39 120 40 191 47 227 23 37 -24 32 -46 -8 -37 -57 12 -122 8 -166 -12
-76 -34 -126 -143 -120 -260 l3 -61 -64 3 c-73 2 -84 11 -76 62 19 112 19 110
-4 110 -14 0 -21 -6 -21 -20 0 -56 -106 -220 -133 -203 -5 3 -7 2 -4 -4 9 -14
-98 -81 -141 -89 -21 -4 -51 -15 -69 -25 l-31 -20 -10 33 c-17 55 -50 219 -56
279 -7 63 8 159 31 202 20 39 69 86 107 103 59 25 98 18 221 -45z m562 -113
c8 -6 12 -17 9 -25 -3 -8 -2 -11 4 -8 14 9 30 -29 30 -72 -1 -123 -150 -284
-308 -333 -79 -25 -188 -27 -220 -4 -31 22 -30 73 3 104 23 21 33 24 103 21
68 -2 81 1 97 18 15 17 17 31 12 80 -9 83 14 155 64 203 25 24 50 38 71 40 43
4 117 -9 135 -24z m-547 -354 c-11 -28 -4 -90 11 -100 27 -16 2 -20 -48 -7
-32 8 -66 14 -75 14 -29 0 -29 16 0 28 15 6 48 29 72 51 25 21 46 39 47 40 1
0 -2 -12 -7 -26z m540 -21 c0 -5 -4 -14 -9 -21 -6 -10 -10 -9 -14 7 -3 14 0
21 9 21 8 0 14 -3 14 -7z m47 -45 c-15 -9 -19 -4 -11 16 5 14 9 15 15 5 5 -8
3 -17 -4 -21z m-107 6 c0 -8 -4 -12 -10 -9 -5 3 -10 10 -10 16 0 5 5 9 10 9 6
0 10 -7 10 -16z m-695 -74 c-6 -9 -9 -9 -16 1 -10 17 0 34 13 21 6 -6 7 -16 3
-22z m825 20 c-8 -5 -19 -10 -25 -10 -5 0 -3 5 5 10 8 5 20 10 25 10 6 0 3 -5
-5 -10z m-189 -37 c13 -16 12 -17 -3 -4 -17 13 -22 21 -14 21 2 0 10 -8 17
-17z m-683 -12 c3 -8 -1 -12 -9 -9 -7 2 -15 10 -17 17 -3 8 1 12 9 9 7 -2 15
-10 17 -17z m642 -26 c0 -5 -5 -3 -10 5 -5 8 -10 20 -10 25 0 6 5 3 10 -5 5
-8 10 -19 10 -25z m152 -80 c0 -38 0 -95 -1 -125 l-2 -55 -17 28 c-9 15 -19
27 -22 27 -3 0 -12 4 -20 10 -12 7 -12 12 4 29 23 25 16 76 -16 116 -20 26
-20 27 -2 40 11 7 28 20 39 28 18 14 21 14 28 -6 4 -12 8 -53 9 -92z m-605 83
c-3 -8 -6 -5 -6 6 -1 11 2 17 5 13 3 -3 4 -12 1 -19z m50 0 c-3 -8 -6 -5 -6 6
-1 11 2 17 5 13 3 -3 4 -12 1 -19z m50 -10 c-3 -7 -5 -2 -5 12 0 14 2 19 5 13
2 -7 2 -19 0 -25z m50 -10 c-3 -7 -5 -2 -5 12 0 14 2 19 5 13 2 -7 2 -19 0
-25z m200 -20 c-3 -7 -5 -2 -5 12 0 14 2 19 5 13 2 -7 2 -19 0 -25z m-552 12
c13 -6 15 -9 5 -9 -8 0 -22 4 -30 9 -18 12 -2 12 25 0z m502 -12 c-3 -8 -6 -5
-6 6 -1 11 2 17 5 13 3 -3 4 -12 1 -19z m-50 -10 c-3 -8 -6 -5 -6 6 -1 11 2
17 5 13 3 -3 4 -12 1 -19z m-312 -9 c103 -26 170 -34 303 -34 79 0 121 -3 119
-10 -3 -6 -71 -9 -199 -6 -162 3 -200 1 -225 -12 -36 -19 -57 -64 -51 -109 4
-26 0 -38 -23 -59 -26 -24 -29 -34 -29 -90 0 -77 -9 -73 -14 7 -4 71 10 194
24 208 5 5 10 17 10 26 0 32 21 90 33 90 7 0 30 -5 52 -11z m563 -21 c7 -7 12
-25 12 -42 0 -16 -3 -26 -7 -22 -5 4 -8 17 -8 29 -1 61 -106 -22 -141 -110
-15 -38 -15 -47 -3 -80 12 -32 20 -39 46 -41 29 -3 33 0 42 35 23 83 62 105
101 56 48 -60 4 -157 -81 -182 -47 -14 -79 -43 -79 -72 0 -11 15 -33 32 -50
25 -22 28 -29 15 -29 -26 0 -67 49 -67 79 0 42 26 68 89 91 63 23 91 56 91
107 0 38 -33 71 -54 54 -7 -6 -16 -26 -20 -43 -19 -97 -126 -86 -143 15 -9 57
46 150 117 200 29 20 42 21 58 5z m-250 -78 c45 0 61 -3 56 -12 -5 -8 -51 -9
-168 -5 -89 4 -166 3 -172 -1 -20 -14 -25 -45 -9 -68 13 -20 24 -24 65 -24 27
0 71 5 99 11 94 20 149 -11 181 -103 12 -32 11 -43 -9 -94 -21 -56 -21 -57 -3
-78 45 -49 55 -111 26 -171 -27 -58 -97 -88 -140 -60 -31 20 -30 50 2 97 22
32 26 45 21 85 -7 67 -49 96 -67 48 -12 -32 -37 -42 -55 -24 -8 8 -18 48 -23
89 -6 41 -11 81 -13 88 -2 8 4 19 13 25 14 9 33 6 88 -13 45 -16 66 -28 60
-34 -6 -6 -33 0 -75 16 -36 15 -67 22 -70 18 -3 -5 2 -42 10 -82 24 -107 24
-107 43 -76 9 15 23 30 31 33 68 26 110 -110 56 -181 -45 -59 -27 -90 43 -72
73 19 93 113 41 192 -18 27 -29 54 -26 64 3 9 13 36 21 58 26 72 -8 138 -82
157 -13 3 -58 0 -100 -8 -64 -11 -82 -11 -109 0 -41 17 -66 55 -57 89 10 42
29 47 149 42 61 -3 138 -6 173 -6z m204 -44 c-13 -11 -33 -38 -43 -60 -18 -39
-24 -36 -19 9 1 11 15 37 32 57 23 30 32 35 42 26 11 -10 8 -16 -12 -32z
m-695 28 c-3 -3 -12 -4 -19 -1 -8 3 -5 6 6 6 11 1 17 -2 13 -5z m-14 -51 c-7
-2 -19 -2 -25 0 -7 3 -2 5 12 5 14 0 19 -2 13 -5z m315 0 c-10 -2 -28 -2 -40
0 -13 2 -5 4 17 4 22 1 32 -1 23 -4z m222 -3 c0 -5 -4 -10 -9 -10 -6 0 -13 5
-16 10 -3 6 1 10 9 10 9 0 16 -4 16 -10z m-532 -47 c-10 -2 -26 -2 -35 0 -10
3 -2 5 17 5 19 0 27 -2 18 -5z m209 -55 c39 -43 46 -72 53 -208 5 -110 11
-143 28 -177 21 -39 77 -93 98 -93 6 0 25 -16 44 -35 33 -34 34 -38 38 -130 3
-59 1 -95 -6 -95 -5 0 -11 39 -14 88 -5 98 -15 121 -70 152 -109 61 -137 120
-142 305 -3 129 -18 178 -58 191 -31 9 -38 -5 -38 -82 0 -43 -4 -74 -10 -74
-13 0 -13 136 0 161 14 26 52 24 77 -3z m-209 5 c-10 -2 -26 -2 -35 0 -10 3
-2 5 17 5 19 0 27 -2 18 -5z m456 1 c9 -4 21 -14 26 -24 9 -17 8 -17 -28 0
-20 9 -44 20 -52 23 -9 3 -4 6 12 6 14 1 34 -2 42 -5z m-456 -51 c-10 -2 -26
-2 -35 0 -10 3 -2 5 17 5 19 0 27 -2 18 -5z m864 -76 c3 -67 -10 -104 -50
-137 -20 -16 -37 -28 -39 -26 -2 2 7 21 22 41 30 45 32 76 6 99 -18 16 -18 18
10 47 16 17 29 39 30 48 1 31 18 -28 21 -72z m55 67 c-3 -3 -12 -4 -19 -1 -8
3 -5 6 6 6 11 1 17 -2 13 -5z m-914 -41 c-7 -2 -19 -2 -25 0 -7 3 -2 5 12 5
14 0 19 -2 13 -5z m960 0 c-7 -2 -19 -2 -25 0 -7 3 -2 5 12 5 14 0 19 -2 13
-5z m-575 -12 c10 -6 9 -10 -7 -14 -14 -3 -21 0 -21 9 0 16 9 18 28 5z m-385
-38 c-7 -2 -19 -2 -25 0 -7 3 -2 5 12 5 14 0 19 -2 13 -5z m970 0 c-7 -2 -19
-2 -25 0 -7 3 -2 5 12 5 14 0 19 -2 13 -5z m-263 -33 c-9 -18 -14 -19 -26 -9
-13 11 -12 14 8 25 29 15 33 12 18 -16z m55 -29 c-16 -32 -35 -49 -35 -32 0
21 24 61 37 61 11 0 11 -5 -2 -29z m-745 15 c0 -2 -9 -6 -20 -9 -11 -3 -18 -1
-14 4 5 9 34 13 34 5z m955 -6 c7 -12 -2 -12 -30 0 -19 8 -19 9 2 9 12 1 25
-3 28 -9z m-925 -34 c0 -2 -7 -7 -16 -10 -8 -3 -12 -2 -9 4 6 10 25 14 25 6z
m900 -16 c8 -5 11 -10 5 -10 -5 0 -17 5 -25 10 -8 5 -10 10 -5 10 6 0 17 -5
25 -10z m-540 -22 c0 -7 -14 -33 -30 -57 -17 -24 -30 -51 -30 -60 -1 -22 -36
46 -44 86 l-7 31 35 -8 c26 -6 39 -4 47 6 14 17 29 18 29 2z m-370 -22 c0 -3
-4 -8 -10 -11 -5 -3 -10 -1 -10 4 0 6 5 11 10 11 6 0 10 -2 10 -4z m885 -6 c3
-5 2 -10 -4 -10 -5 0 -13 5 -16 10 -3 6 -2 10 4 10 5 0 13 -4 16 -10z m-415
-49 c-18 -35 -29 -23 -11 13 9 18 17 27 19 20 2 -7 -2 -22 -8 -33z m190 11
c-1 -43 -51 -92 -96 -92 -13 0 -14 3 -4 15 7 8 19 15 26 15 24 0 54 39 54 71
0 17 4 28 10 24 6 -3 10 -18 10 -33z m-60 9 c0 -6 -4 -12 -8 -15 -5 -3 -9 1
-9 9 0 8 4 15 9 15 4 0 8 -4 8 -9z m241 -8 c13 -16 12 -17 -3 -4 -17 13 -22
21 -14 21 2 0 10 -8 17 -17z m-92 -55 c1 -5 -3 -8 -9 -8 -5 0 -10 12 -9 28 0
24 1 25 9 7 5 -11 9 -23 9 -27z m51 21 c0 -6 -4 -7 -10 -4 -5 3 -10 11 -10 16
0 6 5 7 10 4 6 -3 10 -11 10 -16z m-362 -872 c29 -68 38 -99 67 -242 25 -127
75 -439 75 -474 0 -20 -4 -21 -171 -21 l-171 0 7 58 c16 132 58 385 81 492 23
103 71 240 84 240 3 0 15 -24 28 -53z"/>
</g>
</svg>
